<svg width="102" height="33" viewBox="0 0 102 33" fill="none" xmlns="http://www.w3.org/2000/svg">
<g clip-path="url(#clip0_236_67391)">
<path d="M15.899 0.83374C7.19232 0.83374 0.133789 7.89208 0.133789 16.5988C0.133789 25.3059 7.19232 32.3637 15.899 32.3637C24.6067 32.3637 31.6645 25.3059 31.6645 16.5988C31.6645 7.89265 24.6067 0.834493 15.8989 0.834493L15.899 0.83374ZM23.1289 23.5715C22.8465 24.0346 22.2403 24.1815 21.7772 23.8972C18.0757 21.6362 13.4159 21.1241 7.92822 22.3779C7.39941 22.4984 6.87228 22.1671 6.7518 21.6381C6.63075 21.1091 6.96076 20.582 7.4909 20.4615C13.4963 19.0895 18.6476 19.6802 22.8032 22.2198C23.2663 22.5041 23.4132 23.1084 23.1289 23.5715ZM25.0585 19.2788C24.7027 19.8572 23.9459 20.0398 23.368 19.684C19.1303 17.0792 12.6706 16.3249 7.65826 17.8464C7.0082 18.0427 6.32163 17.6764 6.12434 17.0275C5.92855 16.3774 6.29508 15.6922 6.94401 15.4945C12.6695 13.7573 19.7873 14.5988 24.6538 17.5892C25.2317 17.945 25.4143 18.7017 25.0585 19.2788ZM25.2242 14.8089C20.1431 11.7909 11.76 11.5134 6.9088 12.9858C6.12979 13.222 5.30598 12.7823 5.0699 12.0033C4.83383 11.2239 5.27322 10.4006 6.0528 10.1638C11.6216 8.47324 20.8792 8.79986 26.7291 12.2727C27.4313 12.6885 27.661 13.5935 27.245 14.2932C26.8308 14.9939 25.9234 15.2249 25.225 14.8089H25.2242ZM43.0258 15.3872C40.3036 14.7381 39.8198 14.2825 39.8198 13.3252C39.8198 12.4208 40.6707 11.8122 41.9377 11.8122C43.1652 11.8122 44.3813 12.2743 45.6577 13.2258C45.6953 13.2546 45.7443 13.2661 45.7914 13.2586C45.8403 13.2514 45.8817 13.2252 45.91 13.1859L47.2391 11.3123C47.2936 11.2352 47.2786 11.1288 47.2052 11.0699C45.6859 9.85128 43.9765 9.25883 41.9773 9.25883C39.0386 9.25883 36.9847 11.0226 36.9847 13.5462C36.9847 16.2524 38.7562 17.2106 41.8172 17.9503C44.4208 18.5503 44.8614 19.0529 44.8614 19.9513C44.8614 20.9472 43.9728 21.5666 42.542 21.5666C40.9531 21.5666 39.656 21.03 38.2065 19.7762C38.1707 19.7442 38.1217 19.731 38.0766 19.7329C38.0276 19.7367 37.9843 19.7593 37.9542 19.795L36.4632 21.5684C36.4011 21.6437 36.4086 21.7529 36.4801 21.8169C38.1669 23.323 40.2415 24.1174 42.4818 24.1174C45.6483 24.1174 47.6947 22.3874 47.6947 19.7085C47.7003 17.448 46.3467 16.1961 43.0315 15.3896L43.0258 15.3872ZM54.8597 12.7026C53.4873 12.7026 52.3615 13.2433 51.4315 14.3512V13.1042C51.4315 13.0057 51.3525 12.9255 51.2546 12.9255H48.8167C48.7188 12.9255 48.6397 13.0057 48.6397 13.1042V26.9601C48.6397 27.058 48.7188 27.139 48.8167 27.139H51.2546C51.3525 27.139 51.4315 27.058 51.4315 26.9601V22.5869C52.3615 23.628 53.4873 24.1382 54.8597 24.1382C57.4106 24.1382 59.9935 22.1746 59.9935 18.421C59.9973 14.6665 57.4144 12.7024 54.8616 12.7024L54.8597 12.7026ZM57.1583 18.421C57.1583 20.3316 55.9817 21.6663 54.295 21.6663C52.6289 21.6663 51.3713 20.2713 51.3713 18.421C51.3713 16.5704 52.6289 15.1758 54.295 15.1758C55.9535 15.1756 57.1583 16.5403 57.1583 18.421ZM66.6108 12.7026C63.3257 12.7026 60.7522 15.2321 60.7522 18.4618C60.7522 21.6569 63.3087 24.1589 66.5712 24.1589C69.8676 24.1589 72.4486 21.6381 72.4486 18.421C72.4486 15.2147 69.8846 12.703 66.6108 12.703V12.7026ZM66.6108 21.6852C64.8637 21.6852 63.5459 20.2808 63.5459 18.42C63.5459 16.5508 64.8186 15.1944 66.5712 15.1944C68.3296 15.1944 69.6549 16.5982 69.6549 18.4609C69.6549 20.3297 68.3747 21.6852 66.6108 21.6852ZM79.4631 12.9255H76.7804V10.1834C76.7804 10.0851 76.7014 10.0049 76.6035 10.0049H74.1655C74.0676 10.0049 73.9867 10.0851 73.9867 10.1834V12.9255H72.8157C72.7178 12.9255 72.6388 13.0057 72.6388 13.1042V15.1989C72.6388 15.2972 72.7178 15.3776 72.8157 15.3776H73.9867V20.7985C73.9867 22.9879 75.0767 24.0986 77.2285 24.0986C78.102 24.0986 78.8268 23.9179 79.5102 23.5301C79.5667 23.5 79.6005 23.4397 79.6005 23.3757V21.3802C79.6005 21.3199 79.5685 21.2616 79.5158 21.2296C79.4631 21.1957 79.3972 21.1938 79.3426 21.222C78.8739 21.4574 78.4202 21.5666 77.9119 21.5666C77.1306 21.5666 76.7804 21.2107 76.7804 20.4163V15.3785H79.4631C79.561 15.3785 79.6401 15.2983 79.6401 15.1999V13.1053C79.6438 13.0069 79.5648 12.9267 79.465 12.9267L79.4631 12.9255ZM88.8082 12.9363V12.5995C88.8082 11.6087 89.1885 11.1668 90.0394 11.1668C90.5477 11.1668 90.9562 11.2677 91.4137 11.4202C91.4702 11.4379 91.5285 11.4291 91.5737 11.3954C91.6208 11.3617 91.6471 11.3076 91.6471 11.2504V9.19652C91.6471 9.11802 91.5982 9.04855 91.521 9.0254C91.0391 8.88175 90.4216 8.73435 89.4954 8.73435C87.2457 8.73435 86.054 10.0021 86.054 12.3992V12.915H84.883C84.7852 12.915 84.7042 12.9952 84.7042 13.0935V15.1989C84.7042 15.2972 84.7852 15.3776 84.883 15.3776H86.054V23.7372C86.054 23.8369 86.135 23.916 86.2329 23.916H88.6689C88.7687 23.916 88.8478 23.8369 88.8478 23.7372V15.3781H91.1238L94.6103 23.7372C94.215 24.6144 93.8253 24.7895 93.2944 24.7895C92.8652 24.7895 92.4115 24.6615 91.9502 24.4074C91.9069 24.3848 91.8542 24.381 91.8091 24.3942C91.762 24.4111 91.7225 24.445 91.7036 24.4902L90.8772 26.3031C90.8376 26.3897 90.8715 26.4895 90.9544 26.5347C91.8166 27.0016 92.5941 27.2011 93.5561 27.2011C95.3558 27.2011 96.3517 26.3615 97.2271 24.1061L101.455 13.1802C101.478 13.1253 101.47 13.0631 101.437 13.0144C101.405 12.966 101.35 12.9368 101.292 12.9368H98.7539C98.6767 12.9368 98.6089 12.9852 98.5844 13.0566L95.9846 20.4803L93.1381 13.0517C93.1118 12.9826 93.0459 12.9368 92.9725 12.9368H88.8082V12.9363ZM83.3902 12.9255H80.9522C80.8543 12.9255 80.7734 13.0057 80.7734 13.1042V23.7372C80.7734 23.8369 80.8543 23.916 80.9522 23.916H83.3902C83.4881 23.916 83.569 23.8369 83.569 23.7372V13.1049C83.569 13.0065 83.4899 12.9263 83.3902 12.9263V12.9255ZM82.1853 8.08373C81.2196 8.08373 80.4364 8.86538 80.4364 9.83095C80.4364 10.7971 81.2196 11.5797 82.1853 11.5797C83.1511 11.5797 83.9324 10.7971 83.9324 9.83095C83.9324 8.86556 83.1492 8.08373 82.1853 8.08373Z" fill="#898D94"/>
</g>
<defs>
<clipPath id="clip0_236_67391">
<rect width="101.334" height="31.667" fill="white" transform="translate(0.133789 0.83374)"/>
</clipPath>
</defs>
</svg>
