<svg width="84" height="33" viewBox="0 0 84 33" fill="none" xmlns="http://www.w3.org/2000/svg">
<g clip-path="url(#clip0_236_67395)">
<path d="M74.4652 5.45619C69.3283 5.45619 65.148 9.65447 65.148 14.8156C65.148 19.9767 69.3283 24.1749 74.4652 24.1749C79.601 24.1749 83.78 19.9767 83.78 14.8156C83.78 9.65447 79.601 5.45619 74.4652 5.45619ZM74.4652 19.7393C71.7636 19.7393 69.5632 17.5281 69.5632 14.8156C69.5632 12.1019 71.7636 9.89186 74.4652 9.89186C77.1645 9.89186 79.3661 12.1019 79.3661 14.8156C79.3661 17.5293 77.1657 19.7393 74.464 19.7393H74.4652ZM47.0294 12.9201L45.4002 12.1031C44.6929 11.7512 44.2494 11.4789 44.0711 11.2776C43.9011 11.0993 43.8043 10.8636 43.7999 10.6173C43.7999 10.3016 43.9421 10.0353 44.2217 9.828C44.4989 9.61109 44.8929 9.51228 45.393 9.51228C46.3076 9.51228 47.321 10.0642 48.4369 11.1764L51.1867 8.4133C50.511 7.4932 49.6274 6.74585 48.608 6.23222C47.6019 5.72602 46.4903 5.46505 45.3641 5.47056C43.6855 5.47056 42.2997 5.96591 41.22 6.96367C40.1415 7.96142 39.5993 9.16042 39.5993 10.5667C39.5993 12.7478 41.0272 14.5649 43.8927 16.0073L45.393 16.7605C46.686 17.4148 47.3294 18.0812 47.3294 18.7704C47.3294 19.144 47.1499 19.4669 46.7932 19.7537C46.4365 20.0417 45.9642 20.1779 45.3785 20.1779C44.8363 20.1779 44.2145 19.9911 43.5144 19.6115C42.8168 19.2381 42.1961 18.736 41.6851 18.1318L38.9497 21.125C40.4922 23.1495 42.5491 24.1689 45.1351 24.1689C47.0788 24.1689 48.6297 23.6375 49.7792 22.5819C50.9361 21.5275 51.5145 20.2068 51.5145 18.627C51.5145 17.4425 51.1939 16.4026 50.5577 15.5193C49.9154 14.636 48.7369 13.7756 47.0294 12.9213V12.9201ZM19.367 22.1361V5.82854H14.9446V6.92029C13.4545 5.9625 11.72 5.4542 9.94858 5.45618C4.81279 5.45618 0.633789 9.65447 0.633789 14.8156C0.633789 19.9767 4.81279 24.1749 9.94978 24.1749C11.6999 24.1776 13.4147 23.6823 14.894 22.747C14.894 22.8904 14.8867 23.0193 14.8867 23.1061C14.8867 25.8186 12.6864 28.0298 9.98593 28.0298C9.06773 28.0277 8.1688 27.7662 7.39274 27.2755L5.20563 31.1231C6.64781 32.0028 8.30385 32.4696 9.99317 32.4727C15.1302 32.4727 19.367 28.2732 19.367 23.1121C19.367 22.9121 19.3803 22.3228 19.367 22.1361ZM9.94978 19.7381C7.25054 19.7381 5.04898 17.5281 5.04898 14.8156C5.04898 12.1019 7.24934 9.89186 9.94978 9.89186C12.6502 9.89186 14.8506 12.1019 14.8506 14.8156C14.8506 17.5281 12.6502 19.7393 9.94978 19.7393V19.7381ZM36.9832 5.82252H32.5391V14.7204C32.5463 15.9844 32.5463 18.1667 31.6184 19.0994C31.175 19.5441 30.6894 19.9465 29.6675 19.9465C28.6384 19.9465 28.1528 19.5441 27.7105 19.0994C26.7815 18.1655 26.7887 15.9772 26.7947 14.7204V5.82252H22.3518V14.6939C22.3374 16.5231 22.3157 19.9188 24.545 22.1722C25.8524 23.4929 27.4105 24.1677 29.6603 24.1677C31.9112 24.1677 33.4681 23.5001 34.7756 22.1722C37.0049 19.9188 36.9832 16.5158 36.9687 14.6939L36.9832 5.82131V5.82252ZM62.1668 18.9428C61.8101 19.2151 60.9449 19.8188 59.9665 19.6826C59.1663 19.5742 58.5168 18.9861 58.4168 17.0195V9.64122H63.6394V5.80805H58.4168V0.83374H53.9872V1.8098H53.9799V16.4387C53.9799 18.7644 54.5656 24.1677 59.9592 24.1677C62.6886 24.1255 64.3455 22.6397 65.0396 22.0589L65.1324 21.9866L62.4741 18.6993C62.4669 18.7054 62.2813 18.856 62.1668 18.9428Z" fill="#898D94"/>
</g>
<defs>
<clipPath id="clip0_236_67395">
<rect width="83.1462" height="31.667" fill="white" transform="translate(0.633789 0.83374)"/>
</clipPath>
</defs>
</svg>
