<svg width="121" height="33" viewBox="0 0 121 33" fill="none" xmlns="http://www.w3.org/2000/svg">
<g clip-path="url(#clip0_236_67370)">
<path d="M13.5089 0.83374H0.267578V32.5008L13.5089 0.83374Z" fill="#898D94"/>
<path d="M22.8252 0.83374H36.0493V32.5008L22.8252 0.83374Z" fill="#898D94"/>
<path d="M18.1671 12.5051L26.595 32.5008H21.0656L18.5467 26.1346H12.3789L18.1671 12.5051Z" fill="#898D94"/>
<path d="M57.6516 20.9714L59.2129 25.4484C59.2647 25.5606 59.3423 25.6123 59.4804 25.6123H62.4823C62.6462 25.6123 62.6721 25.5347 62.6462 25.3708L56.4439 8.14412C56.418 8.0061 56.3921 7.98022 56.2541 7.98022H52.5276C52.4241 7.98022 52.3637 8.05786 52.3637 8.17C52.3119 9.07576 52.2343 9.3518 52.1221 9.61921L46.5927 25.3449C46.5668 25.5347 46.6272 25.6123 46.7825 25.6123H49.4653C49.6292 25.6123 49.7068 25.5606 49.7672 25.3967L51.2423 20.9714H57.6516ZM52.0963 18.0471C52.9071 15.5972 53.9768 12.4573 54.4081 10.663H54.434C54.9688 12.5435 56.2283 16.2701 56.7976 18.0471H52.0963Z" fill="#898D94"/>
<path d="M70.6194 25.8802C72.2326 25.8802 73.9492 25.5869 75.6917 24.8364C75.8297 24.7847 75.8556 24.7243 75.8556 24.5949C75.8038 24.1118 75.7434 23.4131 75.7434 22.8783V6.66089C75.7434 6.55737 75.7435 6.50562 75.6141 6.50562H72.6898C72.5776 6.50562 72.5259 6.55737 72.5259 6.69539V12.1903C72.0686 12.1386 71.7495 12.1127 71.3699 12.1127C66.6514 12.1127 63.7529 15.2268 63.7529 19.1172C63.7529 23.6288 66.729 25.8802 70.6194 25.8802ZM72.5258 22.8783C72.0428 23.0335 71.5079 23.0939 70.9645 23.0939C68.8252 23.0939 67.074 21.8863 67.074 18.9533C67.074 16.3568 68.8769 14.8213 71.2664 14.8213C71.7495 14.8213 72.1722 14.8731 72.5258 15.0111V22.8783Z" fill="#898D94"/>
<path d="M85.1845 12.1128C81.1561 12.1128 78.6631 15.201 78.6631 19.0138C78.6631 22.4212 80.6471 25.8803 85.1242 25.8803C88.9111 25.8803 91.568 23.094 91.568 18.9275C91.568 15.2528 89.3165 12.1128 85.1845 12.1128ZM85.0206 14.8214C87.298 14.8214 88.2641 16.7796 88.2641 19.0138C88.2641 21.7742 86.8408 23.1458 85.1845 23.1458C83.1401 23.1458 81.9324 21.4292 81.9324 18.9534C81.9324 16.4087 83.2178 14.8214 85.0206 14.8214Z" fill="#898D94"/>
<path d="M94.5921 6.50562C94.48 6.50562 94.4023 6.55737 94.4023 6.69539V25.0521C94.4023 25.1297 94.48 25.2678 94.5921 25.2936C95.8774 25.6904 97.2231 25.8802 98.612 25.8802C102.589 25.8802 106.453 23.4131 106.453 18.4444C106.453 14.8472 103.986 12.1127 100.122 12.1127C99.2331 12.1127 98.4049 12.2507 97.6803 12.4922L97.6458 6.72127C97.6458 6.53149 97.5941 6.50562 97.4043 6.50562H94.5921ZM103.149 18.7722C103.149 21.7482 101.114 23.1457 98.9139 23.1457C98.4567 23.1457 98.0513 23.1198 97.6803 23.0077V15.175C98.103 15.0111 98.612 14.8731 99.5522 14.8731C101.674 14.8731 103.149 16.2188 103.149 18.7722Z" fill="#898D94"/>
<path d="M117.366 19.7384C118.677 19.7384 119.755 19.7125 120.126 19.6263C120.264 19.6004 120.316 19.5486 120.342 19.4365C120.419 19.1432 120.454 18.5307 120.454 17.7803C120.454 15.2269 118.918 12.1128 114.95 12.1128C110.896 12.1128 108.645 15.4167 108.645 19.1432C108.645 22.4471 110.387 25.8803 115.27 25.8803C117.098 25.8803 118.28 25.587 119.298 25.104C119.401 25.0522 119.453 24.9659 119.453 24.8107V22.5765C119.453 22.4471 119.376 22.4212 119.298 22.4729C118.28 22.9043 117.176 23.1199 115.968 23.1199C113.234 23.1199 111.992 21.6103 111.914 19.7384H117.366ZM111.914 17.4266C112.13 16.1154 112.958 14.692 114.812 14.692C116.857 14.692 117.392 16.4087 117.392 17.185C117.392 17.2109 117.392 17.3231 117.392 17.4007C117.279 17.4266 116.934 17.4266 115.916 17.4266H111.914Z" fill="#898D94"/>
</g>
<defs>
<clipPath id="clip0_236_67370">
<rect width="120.187" height="31.667" fill="white" transform="translate(0.267578 0.83374)"/>
</clipPath>
</defs>
</svg>
