<svg width="88" height="29" viewBox="0 0 88 29" fill="none" xmlns="http://www.w3.org/2000/svg">
<g clip-path="url(#clip0_236_67352)">
<path d="M84.8858 17.5182L87.2954 19.1245C86.5133 20.2765 84.6428 22.2527 81.409 22.2527C77.3931 22.2527 74.4023 19.1457 74.4023 15.1932C74.4023 10.9872 77.4248 8.13379 81.0708 8.13379C84.7379 8.13379 86.5345 11.0506 87.1157 12.6252L87.4327 13.4284L77.9849 17.3386C78.7035 18.7547 79.8238 19.4733 81.409 19.4733C82.9942 19.4733 84.0932 18.6913 84.8858 17.5182ZM77.4776 14.9713L83.7868 12.3504C83.438 11.4733 82.4023 10.8498 81.1659 10.8498C79.5913 10.8498 77.4037 12.2448 77.4776 14.9713Z" fill="#898D94"/>
<path d="M69.8477 0.937012H72.8913V21.6081H69.8477V0.937012Z" fill="#898D94"/>
<path d="M65.0491 8.6834H67.9871V21.2382C67.9871 26.4483 64.9117 28.5936 61.2763 28.5936C57.8523 28.5936 55.7915 26.2898 55.0201 24.4192L57.7149 23.299C58.201 24.4509 59.3741 25.8142 61.2763 25.8142C63.6119 25.8142 65.0491 24.3664 65.0491 21.6609V20.6464H64.9435C64.246 21.4919 62.9144 22.2528 61.2235 22.2528C57.6938 22.2528 54.46 19.1775 54.46 15.2144C54.46 11.2303 57.6938 8.12329 61.2235 8.12329C62.9038 8.12329 64.246 8.87362 64.9435 9.69793H65.0491V8.6834ZM65.2605 15.2144C65.2605 12.7204 63.6013 10.9027 61.4877 10.9027C59.353 10.9027 57.5564 12.7204 57.5564 15.2144C57.5564 17.6768 59.353 19.4628 61.4877 19.4628C63.6013 19.4734 65.2605 17.6768 65.2605 15.2144Z" fill="#898D94"/>
<path d="M37.7527 15.1616C37.7527 19.2303 34.5823 22.221 30.6932 22.221C26.8042 22.221 23.6338 19.2197 23.6338 15.1616C23.6338 11.0717 26.8042 8.09155 30.6932 8.09155C34.5823 8.09155 37.7527 11.0717 37.7527 15.1616ZM34.6668 15.1616C34.6668 12.6252 32.828 10.8815 30.6932 10.8815C28.5585 10.8815 26.7197 12.6252 26.7197 15.1616C26.7197 17.6768 28.5585 19.4416 30.6932 19.4416C32.828 19.4416 34.6668 17.6768 34.6668 15.1616Z" fill="#898D94"/>
<path d="M53.1716 15.1932C53.1716 19.2619 50.0012 22.2527 46.1122 22.2527C42.2231 22.2527 39.0527 19.2619 39.0527 15.1932C39.0527 11.1034 42.2231 8.13379 46.1122 8.13379C50.0012 8.13379 53.1716 11.0928 53.1716 15.1932ZM50.0752 15.1932C50.0752 12.6569 48.2364 10.9132 46.1016 10.9132C43.9669 10.9132 42.128 12.6569 42.128 15.1932C42.128 17.7084 43.9669 19.4733 46.1016 19.4733C48.2469 19.4733 50.0752 17.6979 50.0752 15.1932Z" fill="#898D94"/>
<path d="M12.0298 19.1564C7.60178 19.1564 4.13547 15.5844 4.13547 11.1564C4.13547 6.72842 7.60178 3.15642 12.0298 3.15642C14.4182 3.15642 16.1619 4.09698 17.4512 5.30173L19.5754 3.17756C17.7788 1.45497 15.3799 0.144531 12.0298 0.144531C5.96374 0.144531 0.859375 5.09037 0.859375 11.1564C0.859375 17.2225 5.96374 22.1683 12.0298 22.1683C15.3059 22.1683 17.7788 21.0904 19.7128 19.0825C21.6995 17.0957 22.3125 14.3057 22.3125 12.0441C22.3125 11.3361 22.2279 10.6069 22.1328 10.0679H12.0298V13.0058H19.2266C19.0153 14.8447 18.434 16.1023 17.578 16.9583C16.5423 18.0045 14.9043 19.1564 12.0298 19.1564Z" fill="#898D94"/>
</g>
<defs>
<clipPath id="clip0_236_67352">
<rect width="86.8581" height="28.5003" fill="white" transform="translate(0.733398 0.100586)"/>
</clipPath>
</defs>
</svg>
