<svg width="148" height="33" viewBox="0 0 148 33" fill="none" xmlns="http://www.w3.org/2000/svg">
<g clip-path="url(#clip0_236_67382)">
<path d="M147.73 15.0691V12.4769H144.511V8.44694L144.402 8.48027L141.379 9.40529L141.319 9.42347V12.4769H136.547V10.7761C136.547 9.984 136.724 9.37784 137.073 8.97361C137.42 8.5742 137.916 8.3712 138.548 8.3712C139.003 8.3712 139.473 8.47831 139.947 8.68951L140.066 8.74245V6.0125L140.01 5.992C139.568 5.8332 138.967 5.75317 138.222 5.75317C137.283 5.75317 136.43 5.95743 135.686 6.36236C134.941 6.76784 134.356 7.34673 133.946 8.08282C133.537 8.81802 133.329 9.66711 133.329 10.6067V12.4769H131.088V15.0691H133.329V25.9894H136.547V15.0691H141.319V22.0088C141.319 24.8669 142.667 26.3154 145.326 26.3154C145.763 26.3154 146.223 26.2641 146.692 26.1637C147.17 26.0609 147.496 25.958 147.687 25.8483L147.73 25.8233V23.2071L147.599 23.2937C147.424 23.4102 147.207 23.5052 146.952 23.5758C146.695 23.6478 146.482 23.684 146.316 23.684C145.693 23.684 145.232 23.5161 144.946 23.185C144.657 22.8508 144.511 22.2662 144.511 21.4486V15.0691H147.73ZM123.902 23.6843C122.734 23.6843 121.813 23.297 121.165 22.5341C120.512 21.7674 120.181 20.6743 120.181 19.2855C120.181 17.8527 120.512 16.7313 121.165 15.951C121.814 15.1759 122.726 14.7826 123.876 14.7826C124.992 14.7826 125.88 15.1583 126.516 15.8999C127.155 16.6452 127.48 17.7578 127.48 19.2073C127.48 20.6747 127.175 21.8018 126.573 22.5557C125.975 23.3041 125.077 23.6843 123.902 23.6843ZM124.045 12.1513C121.817 12.1513 120.047 12.8042 118.786 14.0919C117.525 15.3798 116.885 17.1619 116.885 19.3894C116.885 21.505 117.509 23.2068 118.74 24.4466C119.971 25.6869 121.647 26.3151 123.719 26.3151C125.879 26.3151 127.614 25.6532 128.875 24.3476C130.136 23.0433 130.775 21.2782 130.775 19.1027C130.775 16.9539 130.176 15.2395 128.993 14.008C127.809 12.7759 126.144 12.1513 124.045 12.1513ZM111.697 12.1513C110.182 12.1513 108.928 12.5389 107.97 13.3034C107.007 14.0722 106.518 15.0808 106.518 16.3012C106.518 16.9355 106.623 17.4991 106.831 17.9769C107.04 18.4565 107.363 18.8786 107.793 19.2329C108.219 19.5844 108.877 19.9526 109.748 20.327C110.481 20.6286 111.028 20.8838 111.375 21.0849C111.714 21.2818 111.955 21.48 112.091 21.6729C112.223 21.8616 112.291 22.1199 112.291 22.4389C112.291 23.3466 111.611 23.7883 110.212 23.7883C109.693 23.7883 109.101 23.6801 108.453 23.4664C107.804 23.253 107.198 22.9463 106.651 22.553L106.518 22.4573V25.5551L106.567 25.5779C107.022 25.788 107.596 25.9652 108.273 26.1047C108.948 26.2443 109.561 26.3154 110.095 26.3154C111.739 26.3154 113.064 25.9258 114.03 25.1569C115.003 24.3827 115.496 23.3504 115.496 22.0876C115.496 21.1768 115.23 20.3957 114.707 19.7658C114.188 19.1409 113.286 18.5674 112.029 18.0603C111.027 17.6582 110.385 17.3244 110.12 17.0683C109.865 16.8207 109.736 16.4707 109.736 16.0274C109.736 15.6344 109.895 15.3197 110.224 15.0646C110.555 14.8083 111.015 14.678 111.593 14.678C112.129 14.678 112.678 14.7627 113.223 14.9286C113.769 15.0946 114.247 15.3168 114.647 15.5888L114.778 15.6786V12.74L114.728 12.7182C114.359 12.5601 113.873 12.4249 113.283 12.3151C112.694 12.2064 112.161 12.1513 111.697 12.1513ZM98.1293 23.6843C96.9617 23.6843 96.0406 23.297 95.3918 22.5341C94.7388 21.7674 94.4085 20.6747 94.4085 19.2855C94.4085 17.8527 94.7391 16.7313 95.3925 15.951C96.0413 15.1759 96.9531 14.7826 98.1034 14.7826C99.2188 14.7826 100.107 15.1583 100.743 15.8999C101.383 16.6452 101.707 17.7578 101.707 19.2073C101.707 20.6747 101.402 21.8018 100.8 22.5557C100.203 23.3041 99.3045 23.6843 98.1293 23.6843ZM98.2729 12.1513C96.0441 12.1513 94.2743 12.8042 93.0132 14.0919C91.7522 15.3798 91.1123 17.1619 91.1123 19.3894C91.1123 21.5059 91.7369 23.2068 92.9679 24.4466C94.1989 25.6869 95.8741 26.3151 97.9469 26.3151C100.106 26.3151 101.841 25.6532 103.103 24.3476C104.364 23.0433 105.003 21.2782 105.003 19.1027C105.003 16.9539 104.403 15.2395 103.22 14.008C102.036 12.7759 100.371 12.1513 98.2729 12.1513ZM86.2279 14.8169V12.4769H83.0493V25.9891H86.2279V19.0771C86.2279 17.9017 86.4943 16.9362 87.0201 16.2069C87.5393 15.4863 88.2312 15.1211 89.0758 15.1211C89.362 15.1211 89.6834 15.1684 90.0315 15.2617C90.376 15.3546 90.6255 15.4553 90.7727 15.5614L90.9062 15.6581V12.4537L90.8547 12.4316C90.5587 12.3058 90.14 12.2424 89.6101 12.2424C88.8115 12.2424 88.0966 12.499 87.4844 13.0043C86.947 13.4484 86.5585 14.0574 86.2615 14.8169H86.2279ZM77.3573 12.1513C75.8992 12.1513 74.5984 12.4641 73.492 13.0804C72.3834 13.6981 71.5261 14.5802 70.9428 15.7018C70.3621 16.8207 70.0673 18.1277 70.0673 19.5851C70.0673 20.8617 70.3532 22.0334 70.9182 23.0659C71.4835 24.1002 72.2838 24.9093 73.2966 25.4706C74.3081 26.0311 75.4771 26.3154 76.7714 26.3154C78.2819 26.3154 79.5716 26.0133 80.6057 25.4178L80.6474 25.3938V22.4818L80.5139 22.5793C80.0455 22.9205 79.522 23.1928 78.9588 23.389C78.3971 23.5851 77.8848 23.6842 77.4359 23.6842C76.1886 23.6842 75.1875 23.2939 74.4607 22.5246C73.7322 21.7541 73.363 20.6725 73.363 19.3111C73.363 17.9413 73.7481 16.8318 74.5072 16.013C75.2638 15.1967 76.2668 14.7827 77.4883 14.7827C78.533 14.7827 79.5511 15.1365 80.5143 15.8351L80.6474 15.9319V12.8637L80.6044 12.8394C80.2419 12.6366 79.7477 12.4691 79.1339 12.342C78.5229 12.2153 77.9253 12.1513 77.3573 12.1513ZM67.8782 12.4769H64.6996V25.9891H67.8782V12.4769ZM66.3213 6.72064C65.7982 6.72064 65.342 6.89869 64.9671 7.25159C64.5907 7.60556 64.3997 8.05113 64.3997 8.57691C64.3997 9.09449 64.5884 9.53187 64.9611 9.87638C65.3314 10.2198 65.7891 10.394 66.3213 10.394C66.8533 10.394 67.3128 10.2198 67.6876 9.87692C68.065 9.53187 68.2562 9.09449 68.2562 8.57691C68.2562 8.06949 68.0701 7.62837 67.7031 7.26585C67.3367 6.90404 66.8717 6.72064 66.3213 6.72064ZM58.3908 11.48V25.989H61.6346V7.13442H57.1452L51.4386 21.139L45.9008 7.13442H41.2285V25.989H44.2768V11.4786H44.3816L50.2293 25.989H52.5297L58.2862 11.48H58.3908Z" fill="#898D94"/>
<path d="M15.2864 15.7862H0.333984V0.83374H15.2864V15.7862Z" fill="#898D94"/>
<path d="M31.796 15.7862H16.8438V0.83374H31.796V15.7862Z" fill="#898D94"/>
<path d="M15.2861 32.3013H0.333984V17.3489H15.2861V32.3013Z" fill="#898D94"/>
<path d="M31.796 32.3013H16.8438V17.3489H31.796V32.3013Z" fill="#898D94"/>
</g>
<defs>
<clipPath id="clip0_236_67382">
<rect width="147.396" height="31.667" fill="white" transform="translate(0.333984 0.83374)"/>
</clipPath>
</defs>
</svg>
