<svg width="111" height="29" viewBox="0 0 111 29" fill="none" xmlns="http://www.w3.org/2000/svg">
<path fill-rule="evenodd" clip-rule="evenodd" d="M83.1335 7.10227C84.6899 7.10227 85.9517 5.84311 85.9517 4.28984C85.9517 2.73657 84.6899 1.47742 83.1335 1.47742C81.5771 1.47742 80.3154 2.73657 80.3154 4.28984C80.3154 5.84311 81.5771 7.10227 83.1335 7.10227ZM109.214 0.129395H106.532C106.182 0.129395 105.845 0.364528 105.793 0.645517L104.821 7.98603C104.795 8.18021 104.934 8.33913 105.131 8.33913H107.1C107.446 8.33913 107.819 8.07522 107.934 7.74948L110.206 1.31613C110.54 0.638243 110.115 0.129395 109.214 0.129395ZM105.246 24.1022C105.242 24.1032 105.118 24.1305 105.082 24.1384C105.02 24.152 104.968 24.1633 104.918 24.1735C104.66 24.2265 104.455 24.2569 104.24 24.2689C103.288 24.3215 102.582 23.406 102.715 22.325L102.765 21.836C103.016 20.0161 103.199 18.6404 103.367 17.2954C103.585 15.5503 103.656 14.6591 103.614 13.6466C103.536 11.7913 102.6 10.5015 100.88 9.95802C99.9686 9.66992 98.9864 9.50088 98.0271 9.46641C95.173 9.36426 92.2846 9.91628 88.99 11.0779C88.2774 11.329 87.8961 11.8027 87.8214 12.5434C87.8063 12.6922 87.7876 12.8182 87.7432 13.0843C87.7145 13.2562 87.7024 13.3326 87.6894 13.427C87.4258 15.3398 87.213 16.8854 86.7422 20.3059C86.6447 21.015 86.6053 21.3018 86.5529 21.6818C86.4289 22.5841 86.2296 23.5094 86.2296 23.5094C86.0301 24.5467 85.1485 24.3946 84.835 24.4118C83.9175 24.462 83.4031 24.0094 83.3663 23.1068C83.3507 22.7306 83.3656 22.3399 83.4083 21.8445C84.4734 14.4719 84.9879 10.8619 85.0522 10.2403C85.0979 9.79989 84.971 9.65379 84.5413 9.64778C82.9751 9.62532 81.5807 9.62801 80.2494 9.66043C79.6785 9.67434 79.4627 9.88006 79.3781 10.4817C79.3285 10.8347 79.1965 11.7469 78.9392 13.5159C78.8905 13.8506 78.8385 14.2086 78.7655 14.7102C78.7196 15.0255 78.7196 15.0255 78.6725 15.349C78.6249 15.676 78.6051 15.8129 78.5763 16.0098C78.4159 17.1131 78.2928 17.9587 78.1725 18.7871C78.167 18.8254 78.167 18.8254 78.1614 18.8637C78.088 19.37 77.8201 21.3986 77.8201 21.3986C77.7057 22.2559 77.6959 23.0769 77.7768 23.8331C77.6118 23.9824 75.2775 25.9812 73.3893 21.2661C73.344 21.1532 73.3004 21.048 73.258 20.9505C73.1635 20.7071 73.0606 20.4426 72.9415 20.1361C72.878 19.9724 72.6463 19.3758 72.6625 19.4174C72.5505 19.1292 72.4664 18.9127 72.3842 18.7013C72.3469 18.6053 72.3802 18.4965 72.4648 18.4377C72.5443 18.3822 72.6241 18.3281 72.7314 18.2563C72.7603 18.237 72.8601 18.1703 72.8604 18.1701C72.9112 18.1363 72.9494 18.1107 72.9862 18.0857C73.1927 17.9462 73.338 17.8412 73.4732 17.7309C74.7675 16.6752 75.6599 15.2424 76.2803 13.371C76.6646 12.2123 76.8385 11.2123 76.7854 10.2297C76.7584 9.73064 76.5709 9.5023 76.2008 9.49629C74.8684 9.47463 73.4889 9.47969 72.0307 9.50942C71.6832 9.51653 71.5061 9.69047 71.4437 10.0839C71.4152 10.2629 71.3985 10.4482 71.3839 10.7098C71.3812 10.761 71.3792 10.8008 71.3731 10.9193C71.3017 12.3334 70.8904 13.5827 70.1126 14.6694C69.2497 15.8748 67.4104 16.5633 66.0399 16.1872C65.9323 16.1578 65.863 16.0536 65.8774 15.9432C65.9704 15.2334 66.0232 14.8305 66.2203 13.3272C66.5748 10.6221 66.7525 9.26353 66.9586 7.68053C66.991 7.43085 67.0211 7.20157 67.0845 6.71992C67.3206 4.9225 67.422 4.12255 67.5345 3.12224C67.5975 2.56216 67.4545 2.41589 66.8918 2.45574C65.3979 2.56169 64.0941 2.66557 62.8497 2.78006C62.0937 2.84963 61.9088 3.03085 61.7772 3.83444C61.7216 4.17425 61.6846 4.4486 61.6043 5.08601C61.5672 5.38218 61.5484 5.52797 61.5251 5.69985C60.962 9.86014 60.5688 12.7619 60.1745 15.6673C60.0437 16.6312 59.9387 17.4037 59.7027 19.1372C59.6951 19.1923 59.6951 19.1923 59.6877 19.2473C59.392 21.419 59.2491 22.4713 59.0796 23.7222C59.0601 23.8665 59.0518 23.9269 59.0406 24.0107C59.0277 24.1057 58.9555 24.1819 58.8611 24.1999C58.5231 24.2646 58.2688 24.3011 58.0152 24.3149C57.0892 24.3647 56.5694 23.9139 56.5319 23.0127C56.5161 22.6299 56.5307 22.2526 56.5751 21.6837C56.8212 19.9285 57.003 18.5879 57.1693 17.2808C57.3939 15.5165 57.4667 14.6419 57.4264 13.6313C57.3513 11.757 56.3917 10.4564 54.6216 9.91485C53.678 9.62611 52.6491 9.45977 51.6301 9.42719C48.771 9.33595 45.8791 9.88386 42.5415 11.0312C41.8048 11.2845 41.4135 11.7633 41.324 12.5272C41.2613 13.0622 41.201 13.491 41.059 14.4486C40.994 14.8868 40.9654 15.0815 40.9308 15.3247C40.3875 19.1535 40.0722 21.3766 39.7322 23.7798C39.7181 23.8789 39.7035 23.9824 39.6871 24.0973C39.6738 24.1912 39.6026 24.2664 39.5093 24.2849C39.1399 24.3581 38.8788 24.3973 38.6129 24.4118C37.6956 24.462 37.1812 24.0094 37.1442 23.1068C37.1336 22.8486 37.1374 22.5785 37.1536 22.2702C37.1645 22.0616 37.2213 21.3341 37.2269 21.2616C37.2269 21.2616 37.2732 20.8123 37.298 20.592C37.4747 19.0156 37.6529 17.7609 38.0836 14.9282C38.3157 13.4017 38.4187 12.7099 38.5385 11.8543C38.6397 11.1312 38.3909 10.743 37.5785 10.4647C36.8238 10.206 36.4727 10.0924 36.0416 9.97684C33.6162 9.32726 31.2264 9.26195 28.8771 9.8048C25.7602 10.5249 23.5572 12.3242 22.2954 15.1942C22.0001 15.8659 21.7662 16.5497 21.5885 17.2441C20.6843 14.3669 18.3261 12.8209 18.3261 12.8209C18.3261 12.8209 20.8527 11.0896 21.0994 7.18892C21.346 3.28812 17.015 0.131134 11.6113 0.131134C4.95456 0.131134 0.93405 2.9336 0.524827 3.15624C0.449932 3.19688 0.305221 3.28211 0.339018 3.40355L1.39453 6.74174C1.45482 6.9666 1.46958 7.14623 1.75012 7.01988C1.75012 7.01988 4.37476 5.95507 4.95456 5.95507C4.95456 5.95507 1.93291 26.8691 2.00622 26.8691C1.93291 27.4907 2.00622 27.6654 2.83879 27.9115C3.17058 28.0097 18.0072 31.2591 21.336 22.6279C21.3508 22.7286 21.3659 22.8293 21.3828 22.9305C21.6288 24.4079 22.1991 25.5981 23.1617 26.5023C24.6684 27.9173 26.542 28.321 28.9209 27.9159C29.7571 27.7736 30.5454 27.3938 31.3481 26.7794C31.4493 26.7021 31.5947 26.7246 31.6675 26.8291C32.2759 27.7008 33.1951 28.1895 34.9908 28.186C36.7754 28.1754 37.9815 27.775 39.1002 27.3957C39.209 27.3587 39.3284 27.4104 39.3758 27.515C39.4548 27.6895 39.1959 28.0565 39.8169 28.0565C41.3573 28.0565 42.7235 28.0829 44.0288 28.0552C44.6122 28.0429 44.8233 27.846 44.9177 27.2394C45.0261 26.5442 45.1194 25.9009 45.2757 24.7872C45.285 24.7202 45.2926 24.6658 45.3171 24.4923C45.4121 23.8138 45.4883 23.2702 45.6703 21.9693C46.1927 18.2345 46.4357 16.5076 46.7379 14.3998C46.7671 14.1948 46.9502 13.9629 47.1431 13.8846C48.0274 13.525 48.9599 13.3659 49.9166 13.4107C50.8759 13.4556 51.4673 13.945 51.6468 14.8425C51.7101 15.1586 51.7277 15.4703 51.6904 15.7543C51.4596 17.5106 51.2315 19.2033 50.924 21.5177C50.924 21.5177 49.9428 27.3819 54.6381 28.0799C56.9935 28.09 62.2701 28.1525 63.5715 28.1213C64.0396 28.1102 64.2496 27.8979 64.3284 27.3607C64.4182 26.7502 64.4873 26.242 64.6337 25.1289C64.6794 24.7825 64.6997 24.6277 64.7254 24.4348C64.7964 23.9025 64.8694 23.3513 64.9612 22.656C64.9865 22.4643 65.1718 21.0596 65.2265 20.6457C65.2413 20.5349 65.336 20.4519 65.4482 20.4519H67.1824C67.2742 20.4519 67.3567 20.508 67.3904 20.5932C67.3956 20.6068 67.4483 20.7371 67.4654 20.7813C67.4729 20.8002 67.4799 20.8184 67.4865 20.8361C67.902 21.6421 69.1158 23.9998 69.4297 24.6386C69.7405 25.2716 72.449 29.2677 76.0291 28.1148C76.5956 28.0016 77.7443 27.6292 78.5391 26.4214C79.1157 27.4637 79.967 28.1175 80.9906 28.1728V28.225H89.1882V28.1705C89.6197 28.1545 90.5797 28.1102 90.7288 28.0819C91.0166 28.0272 91.1893 27.8417 91.2589 27.5778C91.3229 27.3364 91.3697 27.1117 91.3994 26.8963C91.5373 25.8988 91.6561 25.0361 91.8895 23.3418C91.8997 23.2681 91.8997 23.2681 91.9098 23.1943C92.5115 18.8262 92.7802 16.8825 93.1199 14.4553C93.1489 14.2475 93.3162 14.0078 93.5045 13.9292C94.3809 13.5639 95.3094 13.4036 96.2694 13.4485C97.0468 13.4849 97.6191 13.8422 97.8475 14.5279C97.9834 14.9358 98.0379 15.3798 97.9893 15.7703C97.7819 17.4352 97.6025 18.7968 97.2323 21.5373C97.2256 21.5864 97.2189 21.6361 97.2121 21.6861C97.0915 22.6791 96.7072 27.739 101.335 28.1243C102.248 28.1311 102.638 28.1143 103.079 28.0395C103.684 27.9369 104.127 27.7263 104.479 27.353C105.199 26.5911 105.733 25.5399 105.733 24.5467C105.733 24.1022 105.353 24.0788 105.246 24.1022ZM10.9352 5.09028C10.9433 5.03209 10.9863 4.98449 11.0442 4.96963C11.0637 4.96457 11.0994 4.95618 11.1499 4.94559C11.2325 4.92835 11.3271 4.91096 11.4317 4.89483C12.1183 4.78889 12.8477 4.7843 13.5357 4.94923C14.036 5.06909 16.2221 5.58284 15.5242 8.37233C14.8262 11.162 11.2776 11.2469 10.7476 11.2177C10.6132 11.2102 10.4901 11.2023 10.3808 11.1944C10.3424 11.1916 10.3084 11.189 10.2794 11.1867C10.2618 11.1852 10.2496 11.1843 10.2432 11.1837C10.1593 11.1764 10.0985 11.1016 10.1099 11.0195L10.9352 5.09028ZM16.7033 20.1391C15.773 24.3465 10.0996 23.8758 9.35431 23.8347C9.16548 23.8242 8.99237 23.813 8.83861 23.8019C8.78482 23.798 8.73706 23.7943 8.69612 23.791C8.67137 23.789 8.65423 23.7875 8.64535 23.7868C8.52729 23.7766 8.44208 23.6715 8.45811 23.5561L9.61802 15.2214C9.62945 15.1396 9.68991 15.0726 9.77131 15.0517C9.79876 15.0448 9.84906 15.0329 9.91967 15.0182C10.0361 14.9937 10.1689 14.9693 10.316 14.9467C11.2813 14.7978 12.3066 14.7915 13.2736 15.0231C13.977 15.1917 17.6337 15.9317 16.7033 20.1391ZM32.6023 15.0505C32.4918 15.7459 31.7669 21.4571 31.5306 22.9928C31.4597 23.4536 31.0376 23.8168 30.5973 23.9485C29.7009 24.2167 29.0583 24.2537 28.3996 23.9763C27.6948 23.6795 27.256 23.0967 27.0851 22.3257C26.516 19.7572 26.8906 17.3793 28.2582 15.2484C28.9704 14.1392 30.1698 13.5383 31.4179 13.6237C32.2315 13.6795 32.3914 13.708 32.5602 13.9096C32.7313 14.114 32.7249 14.2766 32.6023 15.0505Z" fill="#898D94"/>
</svg>
