<svg width="126" height="33" viewBox="0 0 126 33" fill="none" xmlns="http://www.w3.org/2000/svg">
<g clip-path="url(#clip0_236_67361)">
<path fill-rule="evenodd" clip-rule="evenodd" d="M40.7705 25.7678L42.3323 22.1386C44.0193 23.4 46.2669 24.0558 48.4845 24.0558C50.1214 24.0558 51.1577 23.4251 51.1577 22.4689C51.1326 19.7958 41.3512 21.8883 41.2761 15.1854C41.2511 11.7814 44.2746 9.15838 48.5596 9.15838C51.1076 9.15838 53.6506 9.78912 55.4677 11.2258L54.006 14.9301C52.344 13.8689 50.2766 13.113 48.3093 13.113C46.9728 13.113 46.0917 13.7437 46.0917 14.5497C46.1168 17.1728 55.9733 15.7361 56.0734 22.1386C56.0734 25.6176 53.125 28.0655 48.89 28.0655C45.7864 28.0605 42.938 27.3296 40.7705 25.7678ZM100.746 20.827C99.9647 22.1886 98.503 23.1197 96.811 23.1197C94.3131 23.1197 92.3008 21.1023 92.3008 18.6094C92.3008 16.1165 94.3181 14.0992 96.811 14.0992C98.498 14.0992 99.9647 15.0302 100.746 16.3918L105.056 13.999C103.444 11.1257 100.34 9.15838 96.811 9.15838C91.5899 9.15838 87.355 13.3933 87.355 18.6144C87.355 23.8355 91.5899 28.0705 96.811 28.0705C100.365 28.0705 103.444 26.1282 105.056 23.2298L100.746 20.827ZM58.2409 1.31421H63.6372V27.7101H58.2409V1.31421ZM107.173 1.31421V27.7101H112.569V19.7908L118.972 27.7101H125.88L117.736 18.3041L125.274 9.52881H118.667L112.564 16.8123V1.31421H107.173Z" fill="#898D94"/>
<path d="M79.6703 20.877C78.8894 22.1635 77.2775 23.1197 75.4604 23.1197C72.9624 23.1197 70.9501 21.1023 70.9501 18.6094C70.9501 16.1165 72.9675 14.0991 75.4604 14.0991C77.2775 14.0991 78.8894 15.1053 79.6703 16.4168V20.877ZM79.6703 9.53377V11.6763C78.7893 10.1895 76.5967 9.15332 74.299 9.15332C69.5585 9.15332 65.8291 13.3382 65.8291 18.5843C65.8291 23.8305 69.5585 28.0654 74.299 28.0654C76.5917 28.0654 78.7843 27.0342 79.6703 25.5425V27.685H85.0666V9.53377H79.6703Z" fill="#898D94"/>
<path fill-rule="evenodd" clip-rule="evenodd" d="M7.41657 20.8521C7.41657 22.6942 5.92984 24.181 4.08768 24.181C2.24553 24.181 0.758789 22.6892 0.758789 20.8521C0.758789 19.0149 2.24553 17.5232 4.08768 17.5232H7.41657V20.8521ZM9.07852 20.8521C9.07852 19.0099 10.5653 17.5232 12.4074 17.5232C14.2496 17.5232 15.7363 19.0099 15.7363 20.8521V29.1718C15.7363 31.014 14.2496 32.5007 12.4074 32.5007C10.5653 32.5007 9.07852 31.014 9.07852 29.1718V20.8521Z" fill="#898D94"/>
<path fill-rule="evenodd" clip-rule="evenodd" d="M12.407 7.49153C10.5649 7.49153 9.07816 6.00479 9.07816 4.16263C9.07816 2.32048 10.5649 0.83374 12.407 0.83374C14.2492 0.83374 15.7359 2.32048 15.7359 4.16263V7.49153H12.407ZM12.407 9.1785C14.2492 9.1785 15.7359 10.6652 15.7359 12.5074C15.7359 14.3495 14.2492 15.8363 12.407 15.8363H4.06229C2.22014 15.8363 0.733398 14.3445 0.733398 12.5074C0.733398 10.6702 2.22014 9.1785 4.06229 9.1785H12.407Z" fill="#898D94"/>
<path fill-rule="evenodd" clip-rule="evenodd" d="M25.7426 12.5074C25.7426 10.6652 27.2293 9.1785 29.0715 9.1785C30.9136 9.1785 32.4004 10.6652 32.4004 12.5074C32.4004 14.3495 30.9136 15.8363 29.0715 15.8363H25.7426V12.5074ZM24.0806 12.5074C24.0806 14.3495 22.5939 15.8363 20.7517 15.8363C18.9096 15.8363 17.4229 14.3495 17.4229 12.5074V4.16263C17.4229 2.32048 18.9096 0.83374 20.7517 0.83374C22.5939 0.83374 24.0806 2.32048 24.0806 4.16263V12.5074Z" fill="#898D94"/>
<path fill-rule="evenodd" clip-rule="evenodd" d="M20.7517 25.8429C22.5939 25.8429 24.0806 27.3297 24.0806 29.1718C24.0806 31.014 22.5939 32.5007 20.7517 32.5007C18.9096 32.5007 17.4229 31.014 17.4229 29.1718V25.8429H20.7517ZM20.7517 24.181C18.9096 24.181 17.4229 22.6942 17.4229 20.8521C17.4229 19.0099 18.9096 17.5232 20.7517 17.5232H29.0965C30.9387 17.5232 32.4254 19.0099 32.4254 20.8521C32.4254 22.6942 30.9387 24.181 29.0965 24.181H20.7517Z" fill="#898D94"/>
</g>
<defs>
<clipPath id="clip0_236_67361">
<rect width="125.146" height="31.667" fill="white" transform="translate(0.733398 0.83374)"/>
</clipPath>
</defs>
</svg>
