<svg width="165" height="40" viewBox="0 0 165 40" fill="none" xmlns="http://www.w3.org/2000/svg">
<path d="M28.2728 8.22727L28.2728 24.3565C28.2728 24.3604 28.276 24.3636 28.28 24.3636C28.2839 24.3636 28.2871 24.3669 28.2871 24.3709C28.2856 26.6707 27.5633 28.1046 26.0001 29.7079C25.9819 29.7266 25.9636 29.7449 25.9453 29.7633C25.2361 30.4726 24.3943 31.0351 23.4678 31.4186C22.5414 31.8024 20.5029 32 19.5001 32C18.4972 32 17.5042 31.8024 16.5778 31.4186C15.6513 31.0351 14.8094 30.4726 14.1003 29.7633C13.3913 29.0543 12.8288 28.2124 12.445 27.2859C12.2046 26.7057 12.0372 26.0992 11.9458 25.4806C11.9429 25.4608 11.9247 25.4469 11.9049 25.4494C11.883 25.4521 11.8637 25.4351 11.8637 25.413L11.8637 8.18182C11.8637 6.97683 12.8405 6 14.0455 6C15.2505 6 16.2273 6.97683 16.2273 8.18182L16.2273 24.3565C16.2273 24.3604 16.2305 24.3636 16.2345 24.3636C16.2384 24.3636 16.2416 24.3668 16.2417 24.3708C16.2426 24.7964 16.3268 25.2176 16.4897 25.6106C16.6534 26.0059 16.8934 26.3651 17.196 26.6677C17.4986 26.9703 17.8578 27.2102 18.2531 27.374C18.6485 27.5378 19.0721 27.622 19.5001 27.622C19.928 27.622 21.3971 27.5378 21.7925 27.374C22.1878 27.2102 22.547 26.9703 22.8496 26.6677C23.0272 26.4901 23.1832 26.293 23.3149 26.0804C23.4076 25.931 23.4883 25.7739 23.5559 25.6106C23.7188 25.2176 23.803 24.7964 23.8039 24.3708C23.8039 24.3668 23.8071 24.3636 23.8111 24.3636C23.815 24.3636 23.8182 24.3604 23.8182 24.3565L23.8182 8.22728C23.8182 6.99718 24.8154 6 26.0455 6C27.2756 6 28.2728 6.99718 28.2728 8.22727Z" fill="#FD9C2A"/>
<g filter="url(#filter0_f_236_67246)">
<path d="M28 16H11V11H28V16Z" fill="#F98701"/>
</g>
<path d="M20.0909 26.5455C18.8859 26.5455 17.9091 25.5686 17.9091 24.3636V15.6435C17.9091 15.6396 17.9059 15.6364 17.9019 15.6364C17.898 15.6364 17.8948 15.6332 17.8948 15.6292C17.8938 15.2036 17.8096 14.7824 17.6468 14.3894C17.483 13.9941 17.243 13.6349 16.9404 13.3323C16.6379 13.0297 16.2787 12.7898 15.8833 12.626C15.488 12.4622 15.0643 12.378 14.6364 12.378C14.359 12.378 14.0835 12.4134 13.8163 12.483C13.6712 12.5208 13.5285 12.5684 13.3894 12.626C12.9941 12.7898 12.6349 13.0297 12.3323 13.3323C12.0297 13.6349 11.7897 13.9941 11.626 14.3894C11.4631 14.7824 11.3789 15.2036 11.378 15.6292C11.378 15.6332 11.3747 15.6364 11.3708 15.6364C11.3668 15.6364 11.3636 15.6396 11.3636 15.6435V29.8182C11.3636 31.0232 10.3868 32 9.18182 32C7.97683 32 7 31.0232 7 29.8182V15.1012C7 15.0953 7.00438 15.0904 7.01021 15.0897C7.01573 15.089 7.02 15.0845 7.0204 15.079C7.07985 14.267 7.26876 13.4684 7.58128 12.7141C7.96507 11.7876 8.52757 10.9457 9.23662 10.2367C9.94573 9.52743 10.7876 8.96493 11.7141 8.58141C12.6405 8.19762 13.6335 8 14.6364 8C15.6392 8 16.6322 8.19762 17.5587 8.58141C18.4852 8.96493 19.327 9.52743 20.0361 10.2367C20.0663 10.2669 20.1155 10.2669 20.1457 10.2367C20.8548 9.52743 21.6966 8.96493 22.6232 8.58141C23.5496 8.19762 24.5426 8 25.5455 8C26.5483 8 27.5413 8.19762 28.4678 8.58141C29.3943 8.96493 30.2361 9.52743 30.9452 10.2367C31.6543 10.9457 32.2168 11.7876 32.6005 12.7141C32.841 13.2943 33.0083 13.9008 33.0997 14.5194C33.1027 14.5392 33.1208 14.5531 33.1406 14.5506C33.1625 14.5479 33.1818 14.5649 33.1818 14.587V29.8182C33.1818 31.0232 32.205 32 31 32C29.795 32 28.8182 31.0232 28.8182 29.8182V15.6435C28.8182 15.6396 28.815 15.6364 28.811 15.6364C28.8071 15.6364 28.8039 15.6332 28.8039 15.6292C28.8029 15.2036 28.7187 14.7824 28.5558 14.3894C28.3921 13.9941 28.1521 13.6349 27.8495 13.3323C27.547 13.0297 27.1877 12.7898 26.7924 12.626C26.3971 12.4622 25.9734 12.378 25.5455 12.378C25.1175 12.378 24.6938 12.4622 24.2985 12.626C23.9032 12.7898 23.5439 13.0297 23.2414 13.3323C23.0638 13.5099 22.9077 13.707 22.776 13.9196C22.6833 14.069 22.6027 14.2261 22.5351 14.3894C22.3722 14.7824 22.288 15.2036 22.2871 15.6292C22.287 15.6332 22.2838 15.6364 22.2799 15.6364C22.2759 15.6364 22.2727 15.6396 22.2727 15.6435V24.3636C22.2727 25.5686 21.2959 26.5455 20.0909 26.5455Z" fill="#FD9C2A"/>
<path d="M45.9176 11.5455H49.1136L54.6705 25.1136H54.875L60.4318 11.5455H63.6278V29H61.1222V16.3693H60.9602L55.8125 28.9744H53.733L48.5852 16.3608H48.4233V29H45.9176V11.5455ZM70.3418 29.2898C69.5122 29.2898 68.7622 29.1364 68.0918 28.8295C67.4213 28.517 66.8901 28.0653 66.498 27.4744C66.1117 26.8835 65.9185 26.1591 65.9185 25.3011C65.9185 24.5625 66.0605 23.9545 66.3446 23.4773C66.6287 23 67.0122 22.6222 67.4952 22.3438C67.9782 22.0653 68.5179 21.8551 69.1145 21.7131C69.7111 21.571 70.3191 21.4631 70.9384 21.3892C71.7225 21.2983 72.3588 21.2244 72.8475 21.1676C73.3361 21.1051 73.6912 21.0057 73.9128 20.8693C74.1344 20.733 74.2452 20.5114 74.2452 20.2045V20.1449C74.2452 19.4006 74.035 18.8239 73.6145 18.4148C73.1997 18.0057 72.5804 17.8011 71.7566 17.8011C70.8986 17.8011 70.2225 17.9915 69.7282 18.3722C69.2395 18.7472 68.9014 19.1648 68.7139 19.625L66.3191 19.0795C66.6032 18.2841 67.0179 17.642 67.5634 17.1534C68.1145 16.6591 68.748 16.3011 69.4639 16.0795C70.1799 15.8523 70.9327 15.7386 71.7225 15.7386C72.2452 15.7386 72.7992 15.8011 73.3844 15.9261C73.9753 16.0455 74.5264 16.267 75.0378 16.5909C75.5549 16.9148 75.9782 17.3778 76.3077 17.9801C76.6372 18.5767 76.802 19.3523 76.802 20.3068V29H74.3134V27.2102H74.2111C74.0463 27.5398 73.7992 27.8636 73.4696 28.1818C73.1401 28.5 72.7168 28.7642 72.1997 28.9744C71.6827 29.1847 71.0634 29.2898 70.3418 29.2898ZM70.8958 27.2443C71.6003 27.2443 72.2026 27.1051 72.7026 26.8267C73.2083 26.5483 73.5918 26.1847 73.8532 25.7358C74.1202 25.2812 74.2537 24.7955 74.2537 24.2784V22.5909C74.1628 22.6818 73.9867 22.767 73.7253 22.8466C73.4696 22.9205 73.177 22.9858 72.8475 23.0426C72.5179 23.0937 72.1969 23.142 71.8844 23.1875C71.5719 23.2273 71.3105 23.2614 71.1003 23.2898C70.606 23.3523 70.1543 23.4574 69.7452 23.6051C69.3418 23.7528 69.0179 23.9659 68.7736 24.2443C68.535 24.517 68.4157 24.8807 68.4157 25.3352C68.4157 25.9659 68.6486 26.4432 69.1145 26.767C69.5804 27.0852 70.1742 27.2443 70.8958 27.2443ZM84.9904 29.2642C83.7234 29.2642 82.6324 28.9773 81.7177 28.4034C80.8086 27.8239 80.1097 27.0256 79.6211 26.0085C79.1324 24.9915 78.8881 23.8267 78.8881 22.5142C78.8881 21.1847 79.1381 20.0114 79.6381 18.9943C80.1381 17.9716 80.8427 17.1733 81.7518 16.5994C82.6609 16.0256 83.7319 15.7386 84.9648 15.7386C85.9591 15.7386 86.8455 15.9233 87.6239 16.2926C88.4023 16.6562 89.0302 17.1676 89.5074 17.8267C89.9904 18.4858 90.2773 19.2557 90.3682 20.1364H87.8881C87.7518 19.5227 87.4393 18.9943 86.9506 18.5511C86.4677 18.108 85.8199 17.8864 85.0074 17.8864C84.2972 17.8864 83.6751 18.0739 83.141 18.4489C82.6126 18.8182 82.2006 19.3466 81.9052 20.0341C81.6097 20.7159 81.462 21.5227 81.462 22.4545C81.462 23.4091 81.6069 24.233 81.8966 24.9261C82.1864 25.6193 82.5955 26.1562 83.1239 26.5369C83.658 26.9176 84.2859 27.108 85.0074 27.108C85.4904 27.108 85.9279 27.0199 86.3199 26.8438C86.7177 26.6619 87.0501 26.4034 87.3171 26.0682C87.5898 25.733 87.7802 25.3295 87.8881 24.858H90.3682C90.2773 25.7045 90.0018 26.4602 89.5415 27.125C89.0813 27.7898 88.4648 28.3125 87.6921 28.6932C86.9251 29.0739 86.0245 29.2642 84.9904 29.2642ZM96.183 29.2898C95.3535 29.2898 94.6035 29.1364 93.933 28.8295C93.2626 28.517 92.7313 28.0653 92.3393 27.4744C91.9529 26.8835 91.7597 26.1591 91.7597 25.3011C91.7597 24.5625 91.9018 23.9545 92.1859 23.4773C92.47 23 92.8535 22.6222 93.3364 22.3438C93.8194 22.0653 94.3592 21.8551 94.9558 21.7131C95.5524 21.571 96.1603 21.4631 96.7796 21.3892C97.5637 21.2983 98.2001 21.2244 98.6887 21.1676C99.1774 21.1051 99.5325 21.0057 99.7541 20.8693C99.9757 20.733 100.086 20.5114 100.086 20.2045V20.1449C100.086 19.4006 99.8762 18.8239 99.4558 18.4148C99.041 18.0057 98.4217 17.8011 97.5978 17.8011C96.7399 17.8011 96.0637 17.9915 95.5694 18.3722C95.0808 18.7472 94.7427 19.1648 94.5552 19.625L92.1603 19.0795C92.4444 18.2841 92.8592 17.642 93.4046 17.1534C93.9558 16.6591 94.5893 16.3011 95.3052 16.0795C96.0211 15.8523 96.7739 15.7386 97.5637 15.7386C98.0864 15.7386 98.6404 15.8011 99.2257 15.9261C99.8166 16.0455 100.368 16.267 100.879 16.5909C101.396 16.9148 101.819 17.3778 102.149 17.9801C102.478 18.5767 102.643 19.3523 102.643 20.3068V29H100.155V27.2102H100.052C99.8876 27.5398 99.6404 27.8636 99.3109 28.1818C98.9813 28.5 98.558 28.7642 98.041 28.9744C97.5239 29.1847 96.9046 29.2898 96.183 29.2898ZM96.737 27.2443C97.4416 27.2443 98.0438 27.1051 98.5438 26.8267C99.0495 26.5483 99.433 26.1847 99.6944 25.7358C99.9614 25.2812 100.095 24.7955 100.095 24.2784V22.5909C100.004 22.6818 99.8279 22.767 99.5666 22.8466C99.3109 22.9205 99.0183 22.9858 98.6887 23.0426C98.3592 23.0937 98.0382 23.142 97.7257 23.1875C97.4132 23.2273 97.1518 23.2614 96.9416 23.2898C96.4472 23.3523 95.9955 23.4574 95.5864 23.6051C95.183 23.7528 94.8592 23.9659 94.6149 24.2443C94.3762 24.517 94.2569 24.8807 94.2569 25.3352C94.2569 25.9659 94.4899 26.4432 94.9558 26.767C95.4217 27.0852 96.0154 27.2443 96.737 27.2443ZM110.218 29.2557C109.161 29.2557 108.218 28.9858 107.388 28.446C106.565 27.9006 105.917 27.125 105.445 26.1193C104.979 25.108 104.746 23.8949 104.746 22.4801C104.746 21.0653 104.982 19.8551 105.454 18.8494C105.931 17.8437 106.584 17.0739 107.414 16.5398C108.244 16.0057 109.184 15.7386 110.235 15.7386C111.048 15.7386 111.701 15.875 112.195 16.1477C112.695 16.4148 113.082 16.7273 113.354 17.0852C113.633 17.4432 113.849 17.7585 114.002 18.0312H114.156V11.5455H116.704V29H114.215V26.9631H114.002C113.849 27.2415 113.627 27.5597 113.337 27.9176C113.053 28.2756 112.661 28.5881 112.161 28.8551C111.661 29.1222 111.013 29.2557 110.218 29.2557ZM110.781 27.0824C111.513 27.0824 112.133 26.8892 112.638 26.5028C113.15 26.1108 113.536 25.5682 113.798 24.875C114.065 24.1818 114.198 23.375 114.198 22.4545C114.198 21.5455 114.067 20.75 113.806 20.0682C113.545 19.3864 113.161 18.8551 112.656 18.4744C112.15 18.0937 111.525 17.9034 110.781 17.9034C110.013 17.9034 109.374 18.1023 108.863 18.5C108.352 18.8977 107.965 19.4403 107.704 20.1278C107.448 20.8153 107.32 21.5909 107.32 22.4545C107.32 23.3295 107.451 24.1165 107.712 24.8153C107.974 25.5142 108.36 26.0682 108.871 26.4773C109.388 26.8807 110.025 27.0824 110.781 27.0824ZM125.263 29.2642C123.973 29.2642 122.862 28.9886 121.931 28.4375C121.004 27.8807 120.288 27.0994 119.783 26.0938C119.283 25.0824 119.033 23.8977 119.033 22.5398C119.033 21.1989 119.283 20.017 119.783 18.9943C120.288 17.9716 120.993 17.1733 121.896 16.5994C122.806 16.0256 123.868 15.7386 125.084 15.7386C125.823 15.7386 126.538 15.8608 127.232 16.1051C127.925 16.3494 128.547 16.733 129.098 17.2557C129.649 17.7784 130.084 18.4574 130.402 19.2926C130.72 20.1222 130.879 21.1307 130.879 22.3182V23.2216H120.473V21.3125H128.382C128.382 20.642 128.246 20.0483 127.973 19.5312C127.7 19.0085 127.317 18.5966 126.823 18.2955C126.334 17.9943 125.76 17.8438 125.101 17.8438C124.385 17.8438 123.76 18.0199 123.226 18.3722C122.698 18.7187 122.288 19.1733 121.999 19.7358C121.715 20.2926 121.573 20.8977 121.573 21.5511V23.0426C121.573 23.9176 121.726 24.6619 122.033 25.2756C122.345 25.8892 122.78 26.358 123.337 26.6818C123.894 27 124.544 27.1591 125.288 27.1591C125.771 27.1591 126.212 27.0909 126.61 26.9545C127.007 26.8125 127.351 26.6023 127.641 26.3239C127.931 26.0455 128.152 25.7017 128.306 25.2926L130.717 25.7273C130.524 26.4375 130.178 27.0597 129.678 27.5938C129.183 28.1222 128.561 28.5341 127.811 28.8295C127.067 29.1193 126.217 29.2642 125.263 29.2642ZM132.987 29V15.9091H135.433V18.0398H135.595C135.868 17.3182 136.314 16.7557 136.933 16.3523C137.552 15.9432 138.294 15.7386 139.157 15.7386C140.032 15.7386 140.765 15.9432 141.356 16.3523C141.953 16.7614 142.393 17.3239 142.677 18.0398H142.814C143.126 17.3409 143.623 16.7841 144.305 16.3693C144.987 15.9489 145.799 15.7386 146.743 15.7386C147.93 15.7386 148.899 16.1108 149.649 16.8551C150.404 17.5994 150.782 18.7216 150.782 20.2216V29H148.234V20.4602C148.234 19.5739 147.993 18.9318 147.51 18.5341C147.027 18.1364 146.45 17.9375 145.779 17.9375C144.95 17.9375 144.305 18.1932 143.845 18.7045C143.385 19.2102 143.154 19.8608 143.154 20.6562V29H140.615V20.2983C140.615 19.5881 140.393 19.017 139.95 18.5852C139.507 18.1534 138.93 17.9375 138.22 17.9375C137.737 17.9375 137.291 18.0653 136.882 18.321C136.478 18.571 136.152 18.9205 135.902 19.3693C135.657 19.8182 135.535 20.3381 135.535 20.929V29H132.987ZM154.62 33.9091C154.239 33.9091 153.893 33.8778 153.58 33.8153C153.268 33.7585 153.035 33.696 152.881 33.6278L153.495 31.5398C153.961 31.6648 154.375 31.7188 154.739 31.7017C155.103 31.6847 155.424 31.5483 155.702 31.2926C155.986 31.0369 156.236 30.6193 156.452 30.0398L156.768 29.1705L151.978 15.9091H154.705L158.02 26.0682H158.157L161.472 15.9091H164.208L158.813 30.7472C158.563 31.429 158.245 32.0057 157.858 32.4773C157.472 32.9545 157.012 33.3125 156.478 33.5511C155.944 33.7898 155.324 33.9091 154.62 33.9091Z" fill="#070C17"/>
<defs>
<filter id="filter0_f_236_67246" x="7" y="7" width="25" height="13" filterUnits="userSpaceOnUse" color-interpolation-filters="sRGB">
<feFlood flood-opacity="0" result="BackgroundImageFix"/>
<feBlend mode="normal" in="SourceGraphic" in2="BackgroundImageFix" result="shape"/>
<feGaussianBlur stdDeviation="2" result="effect1_foregroundBlur_236_67246"/>
</filter>
</defs>
</svg>
